<?xml version="1.0" encoding="utf-8"?><svg xmlns="http://www.w3.org/2000/svg" xmlns:xlink="http://www.w3.org/1999/xlink"><symbol viewBox="0 0 10 18" id="boards-left" xmlns="http://www.w3.org/2000/svg"><path d="M.155 8.64L9.106.15c.211-.2.55-.2.76 0 .21.2.21.52 0 .72l-8.57 8.129 8.57 8.13c.21.2.21.52 0 .72a.556.556 0 0 1-.378.15.537.537 0 0 1-.378-.15L.16 9.358a.489.489 0 0 1-.004-.717z"/></symbol><symbol viewBox="0 0 10 18" id="boards-right" xmlns="http://www.w3.org/2000/svg"><path d="M9.845 8.64L.894.15a.556.556 0 0 0-.76 0 .49.49 0 0 0 0 .72l8.57 8.129-8.57 8.13a.49.49 0 0 0 0 .72c.103.098.242.15.378.15a.537.537 0 0 0 .378-.15l8.95-8.491a.489.489 0 0 0 .004-.717z"/></symbol><symbol viewBox="0 0 14 17" id="control-play" xmlns="http://www.w3.org/2000/svg"><path d="M13.71 8.473L.347 16.187V.76z"/></symbol><symbol viewBox="0 0 10 18" id="control-subscribe" xmlns="http://www.w3.org/2000/svg"><path d="M9.845 8.64L.922.15a.552.552 0 0 0-.757 0 .49.49 0 0 0 0 .72L8.708 9 .165 17.127a.49.49 0 0 0 0 .72A.552.552 0 0 0 .54 18c.135 0 .274-.05.377-.152l8.924-8.49a.49.49 0 0 0 .004-.718z"/></symbol><symbol viewBox="0 0 10 18" id="header-left-control" xmlns="http://www.w3.org/2000/svg"><path d="M.155 8.64L9.106.15c.211-.2.55-.2.76 0 .21.2.21.52 0 .72l-8.57 8.129 8.57 8.13a.49.49 0 0 1 0 .72.556.556 0 0 1-.378.15.54.54 0 0 1-.378-.15L.16 9.357a.489.489 0 0 1-.004-.717z"/></symbol><symbol viewBox="0 0 10 18" id="header-right-control" xmlns="http://www.w3.org/2000/svg"><path d="M9.846 8.64L.922.15a.553.553 0 0 0-.757 0 .49.49 0 0 0 0 .72l8.543 8.129-8.543 8.13a.49.49 0 0 0 0 .72.552.552 0 0 0 .753 0l8.924-8.492a.49.49 0 0 0 .004-.717z"/></symbol><symbol viewBox="0 0 16 44" id="logo" xmlns="http://www.w3.org/2000/svg"><path d="M16 20.58c0 13.508-4.967 22.664-5.178 23.046l-.206.374H5.384l-.206-.374C4.966 43.244 0 34.088 0 20.581 0 7.21 5.679 0 8 0c2.321 0 8 7.211 8 20.58zm-4.727 18.38c-.142-.59-.822-2.645-3.645-4.285-2.565-1.491-4.252-3.268-5.366-4.932 1.19 6.807 3.35 11.521 4.005 12.837h1.006v-4.967h1.454v4.967h1.006c.29-.581.874-1.826 1.54-3.62zm1.839-6.146c-.014-.046-.8-2.625-5.473-5.23-3.276-1.827-5.12-3.98-6.161-5.865.02.88.056 1.741.117 2.58.127.975 1.034 5.818 6.778 9.155 1.908 1.11 2.988 2.412 3.6 3.47a53.17 53.17 0 0 0 1.139-4.11zm.458-2.13a53.29 53.29 0 0 0 .975-10.103c0-11.177-3.956-17.075-5.818-18.697V24.13H7.273V1.884c-1.656 1.443-4.965 5.922-5.68 15.148h.001c-.006 0-.09 5.484 6.767 9.307 2.82 1.573 4.367 3.176 5.21 4.345z"/></symbol><symbol viewBox="0 0 13 21" id="tumblr" xmlns="http://www.w3.org/2000/svg"><path d="M7.06 0v4.719h4.69V8.28H7.06v4.742s-.312 3.374 1.96 3.551c0 0 2.605.186 3.53-1.184v3.552s-2.223 1.199-4.314 1.199c-2.092 0-5.45-1.043-5.492-5.146V8.287H.391V5.13S4.078 4.73 4.706 0z"/></symbol><symbol viewBox="0 0 19 15" id="twitter" xmlns="http://www.w3.org/2000/svg"><path d="M16.511 2.524l1.847-.369S16.811 3.905 16.511 4c-.003.001-.006-.002-.009-.002-.04.853.01 1.109.01 1.109-3.53 15.21-16.52 8.486-16.52 8.486 4.727.125 5.148-1.845 5.148-1.845-2.768-.42-3.301-2.213-3.301-2.213.94.43 1.467-.37 1.467-.37C.319 8.39.738 5.476.738 5.476c.5.46 1.315.634 1.8.7C2.202 5.781-.586 2.419 1.106.68c0 0 2.036 3.682 7.428 4.035l.36-.09a3.91 3.91 0 0 1-.085-.81c0-2.139 1.725-3.874 3.852-3.874 2.564 0 3.118 1.476 3.118 1.476L17.612.31s-.201 1.85-1.1 2.214z"/></symbol><symbol viewBox="0 0 19 16" id="vimeo" xmlns="http://www.w3.org/2000/svg"><path d="M11.21 3.813c-.008.457.568.104 1.101.369s1.594.567.734 2.951c0 0-1.203 3.594-2.201 3.32 0 0-1.55.063-1.834-3.32C8.725 3.75 8.147.316 6.442.492 4.738.668 2.264 2.334.585 4.55c0 0 .463 1.158 1.089 1.107.625-.05.586-.96 1.1-.738.514.224 1.309.187 1.834 3.32.525 3.135 1.307 4.784 2.201 6.273.894 1.49 1.802 1.49 2.568 1.49.765 0 3.22-1.778 5.502-4.81 2.282-3.033 4.044-6.688 4.044-7.38 0-.691.646-3.24-1.843-3.689-2.49-.45-5.836 2.065-5.87 3.69z"/></symbol></svg>